<svg
    xmlns="http://www.w3.org/2000/svg"
    viewBox="0 0 24 24"
    id="vector">
    <g id="group">
        <path
            id="path"
            d="M 12.97 16.9 L 12 15.87 L 11.03 16.9 C 9.43 18.55 9.46 21.23 11.03 22.91 L 12 23.94 L 12.97 22.91 C 14.54 21.23 14.57 18.55 12.97 16.9 Z"
            fill="#f8b64c"
            stroke-width="1"/>
        <path
            id="path_1"
            d="M 12.7 17.71 L 12.02 16.98 L 11.34 17.71 C 10.2 18.9 10.2 20.85 11.34 22.04 L 12.02 22.77 L 12.7 22.04 C 13.84 20.85 13.84 18.9 12.7 17.71 Z"
            fill="#ffd15c"
            stroke-width="1"/>
        <path
            id="path_2"
            d="M 17.12 20.88 C 17.23 20.5 17.26 20.1 17.26 19.72 C 17.26 18.75 16.99 17.83 16.5 17.01 C 15.58 15.49 13.9 14.47 12.01 14.47 C 10.12 14.47 8.44 15.5 7.52 17.01 C 7.06 17.79 6.76 18.74 6.76 19.72 C 6.76 20.1 6.81 20.53 6.9 20.88 C 5.44 19.53 4.49 17.55 4.49 15.39 C 4.49 13.66 5.06 12.11 6.01 10.84 C 7.39 9.03 9.56 7.89 11.99 7.89 C 14.43 7.89 16.62 9.05 17.97 10.84 C 18.92 12.11 19.51 13.68 19.49 15.39 C 19.52 17.55 18.58 19.52 17.12 20.88 Z"
            fill="#ff7058"
            stroke-width="1"/>
        <path
            id="path_3"
            d="M 14.76 18.58 C 18.63 13.19 18.06 5.8 13 1.01 L 12 0.06 L 11 1.01 C 5.94 5.8 5.37 13.19 9.24 18.58 L 14.76 18.58 Z"
            fill="#f2f2f2"
            stroke-width="1"/>
        <path
            id="path_5"
            d="M 9.24 18.58 C 9.46 18.9 9.73 19.23 9.97 19.53 L 13.98 19.53 C 14.25 19.21 14.49 18.91 14.71 18.58 L 9.24 18.58 Z"
            fill="#f2f2f2"
            stroke-width="1"/>
        <path
            id="path_6"
            d="M 11.99 6.1 C 11.208 6.1 10.457 6.411 9.904 6.964 C 9.351 7.517 9.04 8.268 9.04 9.05 C 9.04 9.832 9.351 10.583 9.904 11.136 C 10.457 11.689 11.208 12 11.99 12 C 12.772 12 13.523 11.689 14.076 11.136 C 14.629 10.583 14.94 9.832 14.94 9.05 C 14.94 8.268 14.629 7.517 14.076 6.964 C 13.523 6.411 12.772 6.1 11.99 6.1 Z"
            fill="#40596b"
            stroke-width="1"/>
        <path
            id="path_7"
            d="M 11.99 6.98 C 11.552 6.979 11.125 7.116 10.77 7.373 C 10.415 7.63 10.151 7.993 10.015 8.409 C 9.88 8.826 9.88 9.274 10.015 9.691 C 10.151 10.107 10.415 10.47 10.77 10.727 C 11.125 10.984 11.552 11.121 11.99 11.12 C 12.539 11.12 13.066 10.902 13.454 10.514 C 13.842 10.126 14.06 9.599 14.06 9.05 C 14.06 8.501 13.842 7.974 13.454 7.586 C 13.066 7.198 12.539 6.98 11.99 6.98 Z"
            fill="#84dbff"
            stroke-width="1"/>
        <path
            id="path_8"
            d="M 11.78 7.42 C 12.81 7.42 13.62 8.23 13.62 9.26 C 13.62 10.23 12.86 11.05 11.89 11.1 C 11.94 11.1 11.97 11.13 12 11.1 C 13.14 11.1 14.06 10.18 14.06 9.04 C 14.06 7.9 13.14 6.98 12 6.98 C 10.86 6.98 9.94 7.91 9.94 9.05 C 9.94 9.1 9.97 9.13 9.94 9.16 C 10.02 8.21 10.81 7.42 11.78 7.42 Z"
            fill="#54c0eb"
            stroke-width="1"/>
    </g>
</svg>
