<?xml version="1.0" encoding="utf-8"?>
<!-- Generator: Adobe Illustrator 23.0.6, SVG Export Plug-In . SVG Version: 6.00 Build 0)  -->
<svg version="1.1" id="Capa_1" xmlns="http://www.w3.org/2000/svg" xmlns:xlink="http://www.w3.org/1999/xlink" x="0px" y="0px"
	 viewBox="0 0 64 64" style="enable-background:new 0 0 64 64;" xml:space="preserve">
<style type="text/css">
	.st0{fill:#FFFFFF;stroke:#FFFFFF;stroke-miterlimit:10;}
	.st1{fill:#FFFFFF;}
</style>
<g>
	<path class="st0" d="M54.02,26.01C53.47,11.83,45.68,0.5,36.29,0.5c-5.7,0-11.22,4.19-14.64,11.04c-0.08-0.06-0.16-0.1-0.24-0.16
		c-0.21-0.15-0.42-0.29-0.63-0.42c-0.12-0.07-0.24-0.14-0.36-0.2c-0.21-0.11-0.43-0.21-0.65-0.3c-0.12-0.05-0.24-0.1-0.36-0.14
		c-0.24-0.08-0.48-0.14-0.72-0.2c-0.11-0.02-0.21-0.06-0.32-0.07c-0.35-0.06-0.7-0.09-1.06-0.09c-5.21,0-9.45,6.36-9.45,14.17
		c0,0.2,0.01,0.4,0.02,0.59v0.01C3.5,28.3,0.5,35.78,0.5,43.27c0,11.16,6.05,20.23,13.49,20.23h25.73c0.11,0,0.22-0.01,0.33-0.02
		l0.07-0.01l0.14,0.01c0.11,0.01,0.21,0.02,0.32,0.02l9.88,0c5.28,0,10.21-4.61,12.15-11.98C65.53,40.41,60.93,28.73,54.02,26.01z
		 M60.46,51.14c-1.72,5.72-5.66,9.21-9.85,9.21l-10.01,0c-0.06,0-0.12-0.01-0.18-0.01l-0.28-0.02l-0.21,0.02
		c-0.06,0.01-0.12,0.01-0.18,0.01H14c-6.28,0-11.39-7.66-11.39-17.08c0-6.54,2.84-13.33,6.75-16.15l0.6-0.43V25.7
		c0-0.2,0.01-0.4,0.02-0.61l0.01-0.25l-0.01-0.33c-0.01-0.13-0.01-0.26-0.01-0.38c0-6.08,3.3-11.02,7.35-11.02
		c0.32,0,0.64,0.04,0.96,0.11c0.08,0.02,0.16,0.04,0.24,0.06c0.28,0.07,0.56,0.16,0.83,0.28c0.04,0.02,0.07,0.03,0.11,0.04
		c0.3,0.14,0.59,0.31,0.88,0.51c0.07,0.05,0.15,0.11,0.22,0.16c0.25,0.19,0.5,0.39,0.74,0.62c2.02,1.97,3.37,5.38,3.37,9.25
		c0,0.87,0.47,1.57,1.05,1.57c0.58,0,1.05-0.7,1.05-1.57c0-4.34-1.31-8.22-3.36-10.82c3.01-5.91,7.97-9.65,12.9-9.65
		c8.13,0,14.89,9.66,15.59,21.87c-1.07-0.11-2.68-0.17-4.29,0.2c-0.57,0.13-0.97,0.93-0.88,1.79c0.08,0.78,0.53,1.34,1.04,1.34
		c0.05,0,0.11-0.01,0.16-0.02c2.34-0.53,4.78-0.03,4.92,0C59.13,30.62,63.42,41.28,60.46,51.14z"/>
	<g>
	</g>
	<g>
	</g>
	<g>
	</g>
	<g>
	</g>
	<g>
	</g>
	<g>
	</g>
	<g>
	</g>
	<g>
	</g>
	<g>
	</g>
	<g>
	</g>
	<g>
	</g>
	<g>
	</g>
	<g>
	</g>
	<g>
	</g>
	<g>
	</g>
	<g>
		<g>
			<path class="st1" d="M43.99,47.69c1.3,0.16,2.59,0.33,3.89,0.49c-0.93-0.13-1.86-0.25-2.79-0.38c0.21,0.02,0.42,0.06,0.62,0.12
				c-0.84-0.35-1.67-0.71-2.51-1.06c0.1,0.04,0.19,0.08,0.29,0.12c-0.71-0.55-1.42-1.09-2.13-1.64c0.22,0.14,0.39,0.32,0.53,0.53
				c-0.55-0.71-1.09-1.42-1.64-2.13c0.28,0.47,0.52,0.95,0.74,1.44c-0.35-0.84-0.71-1.67-1.06-2.51c0.42,1.03,0.71,2.08,0.89,3.19
				c-0.13-0.93-0.25-1.86-0.38-2.79c0.14,1.11,0.15,2.2,0.03,3.31c0.13-0.93,0.25-1.86,0.38-2.79c-0.12,0.83-0.28,1.64-0.58,2.42
				c0.35-0.84,0.71-1.67,1.06-2.51c-0.11,0.26-0.26,0.49-0.44,0.7c0.55-0.71,1.09-1.42,1.64-2.13c-0.1,0.09-0.2,0.18-0.3,0.27
				c0.71-0.55,1.42-1.09,2.13-1.64c-0.36,0.24-0.7,0.41-1.09,0.57c0.84-0.35,1.67-0.71,2.51-1.06c-0.67,0.24-1.33,0.39-2.02,0.5
				c0.93-0.13,1.86-0.25,2.79-0.38c-2.42,0.29-4.91,0.16-7.34,0.15c-2.52-0.01-5.04-0.03-7.56-0.02c-2.52,0.01-5.04,0.06-7.55,0.18
				c-2.49,0.12-5.03,0.61-7.52,0.57c0.93,0.13,1.86,0.25,2.79,0.38c-0.27-0.02-0.52-0.08-0.76-0.18c0.84,0.35,1.67,0.71,2.51,1.06
				c-0.1-0.06-0.2-0.11-0.29-0.17c0.71,0.55,1.42,1.09,2.13,1.64c-0.18-0.13-0.34-0.28-0.48-0.46c0.55,0.71,1.09,1.42,1.64,2.13
				c-0.2-0.3-0.35-0.58-0.5-0.91c0.35,0.84,0.71,1.67,1.06,2.51c-0.87-2.36-1.6-5.02-1.95-7.51c0.13,0.93,0.25,1.86,0.38,2.79
				c-0.04-0.47-0.05-0.91-0.02-1.38c-0.13,0.93-0.25,1.86-0.38,2.79c0.08-0.56,0.21-1.05,0.41-1.57c-0.35,0.84-0.71,1.67-1.06,2.51
				c1.16-2.52,3.21-4.67,4.69-7.01c1.13-1.8,2.13-3.62,2.74-5.68c0.68-2.27,0.49-4.55,0.05-6.82c-0.15-0.78-0.42-1.52-0.54-2.31
				c0.13,0.93,0.25,1.86,0.38,2.79c-0.03-0.41-0.03-0.78,0.01-1.18c-0.13,0.93-0.25,1.86-0.38,2.79c0.07-0.4,0.16-0.76,0.29-1.15
				c-0.35,0.84-0.71,1.67-1.06,2.51c0.05-0.12,0.1-0.24,0.16-0.36c-6.04,0-12.09,0-18.13,0c1.43,2.25,2.7,4.58,3.82,6.99
				c1.32,2.85,2.97,5.58,5.39,7.65c3.02,2.6,6.75,5.44,10.79,5.98c3.1,0.42,6.24-0.26,8.81-2.1c1.6-1.14,3.16-2.36,4.52-3.78
				c1.59-1.66,2.97-3.52,4.55-5.19c0.71-0.75,1.44-1.47,2.09-2.28c2.3-2.87,3.74-5.62,4.01-9.39c0.29-4.12-1.85-7.73-3.58-11.29
				c-1.39-2.86-2.59-5.74-4.76-8.14c-2.42-2.67-5.98-4.06-9.53-4.17c-2.8-0.09-5.57,1.01-8,2.26c-3.89,2-6.41,6.15-6.51,10.5
				c-0.06,2.89,0.84,5.54,2.21,8.05c2.63,4.83,9.7,6.77,14.37,3.77c4.9-3.16,6.58-9.2,3.77-14.37c-0.18-0.33-0.34-0.66-0.49-1
				c0.35,0.84,0.71,1.67,1.06,2.51c-0.13-0.36-0.22-0.69-0.29-1.06c0.13,0.93,0.25,1.86,0.38,2.79c-0.03-0.23-0.03-0.45,0.01-0.68
				c-0.13,0.93-0.25,1.86-0.38,2.79c0.03-0.11,0.06-0.21,0.08-0.32c-0.35,0.84-0.71,1.67-1.06,2.51c0.05-0.1,0.1-0.2,0.14-0.3
				c-0.55,0.71-1.09,1.42-1.64,2.13c0.13-0.2,0.28-0.36,0.48-0.49c-0.71,0.55-1.42,1.09-2.13,1.64c0.43-0.26,0.89-0.47,1.35-0.68
				c-0.84,0.35-1.67,0.71-2.51,1.06c0.52-0.21,1.01-0.37,1.56-0.46c-0.93,0.13-1.86,0.25-2.79,0.38c0.26-0.03,0.52-0.03,0.79,0.01
				c-0.93-0.13-1.86-0.25-2.79-0.38c0.24,0.04,0.48,0.11,0.7,0.22c-0.84-0.35-1.67-0.71-2.51-1.06c0.2,0.1,0.38,0.22,0.55,0.36
				c-0.71-0.55-1.42-1.09-2.13-1.64c0.17,0.14,0.33,0.3,0.47,0.48c-0.55-0.71-1.09-1.42-1.64-2.13c1.03,1.34,1.66,3.01,2.4,4.53
				c0.84,1.73,1.72,3.44,2.51,5.19c-0.35-0.84-0.71-1.67-1.06-2.51c0.16,0.39,0.27,0.75,0.37,1.16c-0.13-0.93-0.25-1.86-0.38-2.79
				c0.05,0.4,0.05,0.73,0,1.13c0.13-0.93,0.25-1.86,0.38-2.79c-0.04,0.24-0.11,0.47-0.2,0.69c0.35-0.84,0.71-1.67,1.06-2.51
				c-0.2,0.46-0.45,0.87-0.74,1.28c0.55-0.71,1.09-1.42,1.64-2.13c-1.3,1.66-2.87,3.11-4.23,4.73c-1.39,1.65-2.78,3.29-4.48,4.64
				c0.71-0.55,1.42-1.09,2.13-1.64c-0.54,0.41-1.07,0.79-1.69,1.06c0.84-0.35,1.67-0.71,2.51-1.06c-0.13,0.02-0.26,0.05-0.39,0.07
				c0.93-0.13,1.86-0.25,2.79-0.38c-0.12-0.01-0.23-0.02-0.35-0.04c0.93,0.13,1.86,0.25,2.79,0.38c-0.11-0.04-0.22-0.07-0.34-0.11
				c0.84,0.35,1.67,0.71,2.51,1.06c-1.28-0.64-2.5-1.5-3.64-2.35c0.71,0.55,1.42,1.09,2.13,1.64c-0.85-0.66-1.62-1.37-2.31-2.19
				c0.55,0.71,1.09,1.42,1.64,2.13c-1.22-1.58-1.93-3.42-2.8-5.2c-0.97-1.98-2.06-3.9-3.24-5.76c-2.01-3.16-5.25-5.2-9.07-5.2
				c-1.9,0.01-3.66,0.48-5.3,1.43c-1.58,0.93-2.83,2.19-3.77,3.77c-1.14,2.68-1.9,4.62-1.91,7.6c-0.01,2.06,0.67,3.76,0.98,5.71
				c-0.13-0.93-0.25-1.86-0.38-2.79c0.03,0.28,0.02,0.56-0.03,0.83c0.13-0.93,0.25-1.86,0.38-2.79c-0.05,0.26-0.13,0.52-0.24,0.77
				c0.35-0.84,0.71-1.67,1.06-2.51c-1.16,2.48-2.88,4.76-4.51,6.95c-1.22,1.64-2.02,3.21-2.74,5.18C1.77,39.62,2,42.56,2.48,45.52
				c0.23,1.41,0.63,2.79,1.01,4.17c0.55,2.03,1.07,4.08,2.11,5.95c1.64,2.96,4.5,5.28,7.78,6.17c2.41,0.65,4.44,0.33,6.81,0.13
				c5.99-0.52,12.02-0.46,18.03-0.43c3.74,0.02,7.4,0.09,11.11-0.52c5.74-0.94,10.53-5.19,11.64-10.98
				c0.94-4.88,0.62-9.56-1.32-14.15c-1.55-3.68-4.19-7.24-8.36-8.18c-2.36-0.53-4.89-0.68-7.3-0.98c-2.47-0.31-5.75,1.4-7.42,3.08
				c-1.82,1.82-3.19,4.81-3.08,7.42c0.12,2.72,1.01,5.53,3.08,7.42c0.71,0.55,1.42,1.09,2.13,1.64
				C40.33,47.2,42.09,47.68,43.99,47.69L43.99,47.69z"/>
		</g>
	</g>
</g>
</svg>
